<svg width="1215" height="327" viewBox="0 0 1215 327" fill="none" xmlns="http://www.w3.org/2000/svg">
<g clip-path="url(#clip0_423_1485)">
<path d="M453.64 103.68C459.293 103.68 464.627 104.587 469.64 106.4C474.76 108.107 479.347 110.507 483.4 113.6C487.453 116.693 490.76 120.267 493.32 124.32C495.987 128.267 497.693 132.587 498.44 137.28C498.653 138.453 498.653 139.253 498.44 139.68C498.227 140 497.747 140.213 497 140.32L482.12 141.28C481.48 141.387 481.053 141.28 480.84 140.96C480.627 140.64 480.413 140.16 480.2 139.52C478.813 133.12 475.88 127.893 471.4 123.84C466.92 119.787 461.213 117.76 454.28 117.76C444.147 117.76 436.307 121.6 430.76 129.28C425.32 136.96 422.6 148.693 422.6 164.48C422.6 180.053 425.267 191.68 430.6 199.36C436.04 207.04 444.147 210.88 454.92 210.88C462.067 210.88 468.04 209.173 472.84 205.76C477.747 202.24 481.747 196.533 484.84 188.64C485.16 187.893 485.96 187.627 487.24 187.84L498.6 190.56C498.92 190.667 499.24 190.88 499.56 191.2C499.88 191.52 499.933 192.213 499.72 193.28C498.973 196.053 497.747 198.933 496.04 201.92C494.333 204.907 492.2 207.84 489.64 210.72C487.08 213.493 484.04 216 480.52 218.24C477 220.48 473 222.293 468.52 223.68C464.147 224.96 459.347 225.6 454.12 225.6C443.347 225.6 434.067 223.093 426.28 218.08C418.6 213.067 412.68 205.973 408.52 196.8C404.36 187.627 402.28 176.8 402.28 164.32C402.28 151.733 404.36 140.907 408.52 131.84C412.68 122.773 418.6 115.84 426.28 111.04C433.96 106.133 443.08 103.68 453.64 103.68ZM523.866 250.4C520.666 250.4 518.213 250.293 516.506 250.08C514.906 249.867 514.106 249.173 514.106 248V239.84C514.106 239.2 514.373 238.667 514.906 238.24C515.546 237.813 516.773 237.6 518.586 237.6H528.986C531.226 237.6 533.253 236.907 535.066 235.52C536.986 234.24 538.533 232.587 539.706 230.56C540.88 228.533 541.626 226.4 541.946 224.16C542.373 222.027 542.266 220.107 541.626 218.4L511.066 142.24C510.746 141.493 510.746 140.8 511.066 140.16C511.386 139.52 512.08 139.2 513.146 139.2H526.266C526.906 139.2 527.493 139.413 528.026 139.84C528.56 140.16 528.88 140.64 528.986 141.28L551.066 198.88C551.386 199.84 551.813 200.32 552.346 200.32C552.88 200.32 553.36 199.68 553.786 198.4L575.546 141.12C575.76 140.587 576.08 140.16 576.506 139.84C576.933 139.413 577.466 139.2 578.106 139.2H587.546C588.4 139.2 588.986 139.52 589.306 140.16C589.733 140.693 589.733 141.28 589.306 141.92L554.906 229.12C553.2 233.493 551.333 237.067 549.306 239.84C547.28 242.613 545.04 244.747 542.586 246.24C540.133 247.84 537.36 248.907 534.266 249.44C531.28 250.08 527.813 250.4 523.866 250.4ZM637.239 137.6C643.212 137.6 648.385 138.613 652.759 140.64C657.239 142.56 660.972 145.173 663.959 148.48C667.052 151.68 669.505 155.147 671.319 158.88C671.959 160.373 671.585 161.28 670.199 161.6L658.839 163.52C657.879 163.733 657.185 163.307 656.759 162.24C654.945 159.467 653.132 157.173 651.319 155.36C649.505 153.547 647.532 152.107 645.399 151.04C643.265 149.973 640.812 149.44 638.039 149.44C633.132 149.44 628.812 150.72 625.079 153.28C621.452 155.733 618.625 159.36 616.599 164.16C614.679 168.96 613.719 174.773 613.719 181.6C613.719 188.427 614.732 194.293 616.759 199.2C618.785 204 621.665 207.68 625.399 210.24C629.132 212.693 633.559 213.92 638.679 213.92C643.692 213.92 647.905 212.64 651.319 210.08C654.732 207.52 657.879 203.893 660.759 199.2C661.079 198.773 661.345 198.507 661.559 198.4C661.879 198.293 662.359 198.347 662.999 198.56L671.479 201.12C672.332 201.44 672.545 202.24 672.119 203.52C670.839 206.187 669.132 208.853 666.999 211.52C664.972 214.187 662.519 216.587 659.639 218.72C656.865 220.747 653.612 222.4 649.879 223.68C646.145 224.96 641.932 225.6 637.239 225.6C629.239 225.6 622.145 223.787 615.959 220.16C609.879 216.427 605.079 211.307 601.559 204.8C598.145 198.187 596.439 190.56 596.439 181.92C596.439 173.173 598.199 165.493 601.719 158.88C605.239 152.267 610.039 147.093 616.119 143.36C622.305 139.52 629.345 137.6 637.239 137.6ZM705.226 220.96C705.226 222.133 704.96 222.933 704.426 223.36C704 223.787 703.146 224 701.866 224H690.986C689.066 224 688.106 223.147 688.106 221.44L688.426 107.68C688.426 106.08 689.12 105.28 690.506 105.28H703.146C704.533 105.28 705.226 106.08 705.226 107.68V220.96ZM740.754 187.52C740.754 192.32 741.874 196.693 744.114 200.64C746.46 204.48 749.554 207.573 753.394 209.92C757.34 212.16 761.714 213.28 766.514 213.28C771.42 213.28 775.794 212.267 779.634 210.24C783.474 208.213 786.994 205.067 790.194 200.8C790.514 200.373 790.834 200.16 791.154 200.16C791.474 200.053 791.954 200.16 792.594 200.48L800.754 204.32C801.927 204.853 802.034 205.707 801.074 206.88C798.087 211.253 794.78 214.827 791.154 217.6C787.634 220.373 783.687 222.4 779.314 223.68C774.94 224.96 770.087 225.6 764.754 225.6C756.647 225.6 749.5 223.787 743.314 220.16C737.127 216.533 732.22 211.467 728.594 204.96C725.074 198.453 723.314 190.987 723.314 182.56C723.314 173.28 725.127 165.333 728.754 158.72C732.38 152 737.287 146.827 743.474 143.2C749.767 139.467 756.754 137.6 764.434 137.6C772.327 137.6 779.207 139.36 785.074 142.88C791.047 146.293 795.687 151.253 798.994 157.76C802.3 164.267 803.954 172.16 803.954 181.44C803.954 182.4 803.847 183.253 803.634 184C803.42 184.64 802.727 184.96 801.554 184.96H742.354C741.82 184.96 741.394 185.227 741.074 185.76C740.86 186.187 740.754 186.773 740.754 187.52ZM784.434 174.88C785.607 174.88 786.354 174.72 786.674 174.4C786.994 174.08 787.154 173.493 787.154 172.64C787.154 168.587 786.247 164.747 784.434 161.12C782.727 157.493 780.22 154.56 776.914 152.32C773.714 150.08 769.714 148.96 764.914 148.96C759.9 148.96 755.58 150.187 751.954 152.64C748.434 154.987 745.714 158.133 743.794 162.08C741.98 166.027 741.074 170.24 741.074 174.72L784.434 174.88ZM904.578 225.6C894.551 225.6 885.911 223.307 878.658 218.72C871.511 214.133 866.018 207.36 862.178 198.4C858.338 189.44 856.418 178.4 856.418 165.28C856.418 151.947 858.338 140.693 862.178 131.52C866.124 122.347 871.671 115.413 878.818 110.72C886.071 106.027 894.711 103.68 904.738 103.68C914.764 103.68 923.351 106.027 930.498 110.72C937.644 115.413 943.138 122.293 946.978 131.36C950.818 140.427 952.738 151.627 952.738 164.96C952.738 178.08 950.818 189.173 946.978 198.24C943.138 207.2 937.591 214.027 930.338 218.72C923.191 223.307 914.604 225.6 904.578 225.6ZM904.898 218.88C918.124 218.88 928.098 214.453 934.818 205.6C941.644 196.64 945.058 183.093 945.058 164.96C945.058 146.613 941.591 132.96 934.658 124C927.831 114.933 917.858 110.4 904.738 110.4C891.511 110.4 881.431 114.933 874.498 124C867.564 133.067 864.098 146.72 864.098 164.96C864.098 182.987 867.564 196.48 874.498 205.44C881.538 214.4 891.671 218.88 904.898 218.88ZM1061.03 221.76C1061.24 222.293 1061.19 222.827 1060.87 223.36C1060.65 223.787 1060.28 224 1059.75 224H1055.27C1054.52 224 1053.88 223.52 1053.35 222.56L1030.63 168.8C1030.2 167.733 1029.08 167.2 1027.27 167.2H992.708C991.961 167.2 991.428 167.36 991.108 167.68C990.894 168 990.788 168.427 990.788 168.96V222.24C990.788 223.413 990.254 224 989.188 224H985.028C984.388 224 983.961 223.893 983.748 223.68C983.534 223.36 983.428 222.987 983.428 222.56V106.88C983.428 105.813 983.908 105.28 984.868 105.28H1026.15C1037.67 105.28 1046.63 107.733 1053.03 112.64C1059.43 117.547 1062.63 124.907 1062.63 134.72C1062.63 141.227 1061.35 146.613 1058.79 150.88C1056.33 155.04 1053.24 158.293 1049.51 160.64C1045.77 162.88 1042.04 164.48 1038.31 165.44C1037.67 165.547 1037.45 165.92 1037.67 166.56L1061.03 221.76ZM1020.55 160.8C1031.96 160.8 1040.55 158.88 1046.31 155.04C1052.07 151.2 1054.95 144.8 1054.95 135.84C1054.95 127.627 1052.55 121.547 1047.75 117.6C1042.95 113.653 1035.69 111.68 1025.99 111.68H992.548C991.374 111.68 990.788 112.107 990.788 112.96V159.36C990.788 160.32 991.161 160.8 991.908 160.8H1020.55ZM1093.46 224C1092.5 224 1092.02 223.467 1092.02 222.4V106.88C1092.02 105.813 1092.5 105.28 1093.46 105.28H1097.62C1098.26 105.28 1098.74 105.387 1099.06 105.6C1099.38 105.707 1099.59 106.027 1099.7 106.56L1142.42 213.76C1142.85 214.827 1143.27 215.36 1143.7 215.36C1144.13 215.253 1144.55 214.667 1144.98 213.6L1188.34 106.4C1188.66 105.653 1189.25 105.28 1190.1 105.28H1194.74C1195.7 105.28 1196.18 105.813 1196.18 106.88V222.4C1196.18 223.467 1195.7 224 1194.74 224H1190.42C1189.89 224 1189.46 223.893 1189.14 223.68C1188.93 223.467 1188.82 223.093 1188.82 222.56V123.68C1188.82 123.253 1188.77 123.093 1188.66 123.2C1188.55 123.307 1188.45 123.467 1188.34 123.68L1148.5 222.24C1148.07 223.413 1147.22 224 1145.94 224H1141.62C1140.02 224 1139.01 223.467 1138.58 222.4L1099.54 124.48C1099.43 124.267 1099.33 124.16 1099.22 124.16C1099.11 124.053 1099.06 124.16 1099.06 124.48V222.56C1099.06 222.987 1098.9 223.36 1098.58 223.68C1098.37 223.893 1097.99 224 1097.46 224H1093.46Z" fill="#EEEDED"/>
<path d="M24.3352 227.022L193.325 255.845L126.992 326.521L24.3352 227.022Z" fill="#72D4E3"/>
<path d="M306.415 103.919L137.334 75.6387L203.439 4.75064L306.415 103.919Z" fill="#72D4E3"/>
<path d="M39.925 71.9365L97.6916 233.341L3.56681 210.199L39.925 71.9365Z" fill="#72D4E3"/>
<path d="M291.323 259.054L233.038 97.8362L327.237 120.675L291.323 259.054Z" fill="#72D4E3"/>
<path d="M182.655 10.8296L71.4271 141.277L44.6422 48.1233L182.655 10.8296Z" fill="#72D4E3"/>
<path d="M148.789 320.619L259.598 189.815L286.682 282.882L148.789 320.619Z" fill="#72D4E3"/>
</g>
<defs>
<clipPath id="clip0_423_1485">
<rect width="1215" height="327" fill="white"/>
</clipPath>
</defs>
</svg>
